<svg width="3302" height="1043" viewBox="0 0 3302 1043" fill="none" xmlns="http://www.w3.org/2000/svg">
<path d="M520.68 759.595C605.921 831.564 699.336 882.092 794.596 906.697V845.537C709.706 814.429 627.276 764.516 551.525 698.434C540.101 718.557 529.731 738.944 520.68 759.507V759.595Z" fill="#025155"></path>
<path d="M794.595 1001.6V948.175C693.886 923.745 595.111 872.163 504.948 798.348C496.6 821.019 489.657 843.955 484.297 866.89C581.49 941.233 687.91 988.158 794.595 1001.6Z" fill="#025155"></path>
<path d="M450.202 839.297C456.353 816.273 463.911 793.426 472.787 770.754C470.941 769.085 469.096 767.151 467.25 765.482C467.69 764.339 468.041 763.197 468.48 762.055C452.399 747.555 436.581 732.441 421.202 716.535C412.326 740.086 404.945 763.812 399.32 787.626C400.99 789.208 402.66 790.79 404.329 792.371C403.978 793.777 403.538 795.095 403.187 796.501C418.478 811.528 434.208 825.676 450.202 839.209V839.297Z" fill="#025155"></path>
<path d="M535.351 508.447C550.466 491.575 566.021 475.406 581.927 459.94C580.169 457.656 578.587 455.371 576.83 453.174C576.83 453.174 576.918 453.086 577.005 452.998C570.766 444.914 564.703 436.741 558.727 428.569C553.279 420.924 547.918 413.191 542.821 405.37C541.327 403.085 539.657 400.888 538.251 398.691C522.345 414.07 506.967 430.414 491.852 447.286C493.345 449.571 494.927 451.768 496.509 453.965C496.509 453.965 496.421 454.141 496.333 454.141C508.461 472.506 521.554 490.521 535.527 508.272L535.351 508.447Z" fill="#025155"></path>
<path d="M794.592 734.726C730.704 703.091 668.838 660.735 611.102 609.152C597.305 627.079 584.475 645.357 572.523 663.899C641.859 725.499 717.171 772.688 794.592 803.093V734.726Z" fill="#025155"></path>
<path d="M446.506 591.311C444.836 589.29 443.255 587.093 441.585 585.072C441.848 584.633 442.112 584.105 442.376 583.666C427.612 566.179 413.288 548.165 399.315 529.359C386.925 549.307 375.676 569.43 365.57 589.905C367.064 591.926 368.646 593.86 370.228 595.881C369.964 596.496 369.613 597.023 369.349 597.638C383.497 616.707 398.173 634.897 413.288 652.472C423.306 631.91 434.379 611.522 446.594 591.399L446.506 591.311Z" fill="#025155"></path>
<path d="M794.595 135.151C792.574 135.679 790.553 136.382 788.444 136.909V130.055C693.799 154.572 600.824 204.836 516.109 276.367C525.161 296.841 535.442 317.141 546.779 337.088C547.13 336.825 547.394 336.561 547.746 336.297C549.064 338.67 550.206 341.042 551.524 343.327C627.275 277.333 709.705 227.332 794.595 196.225V135.064V135.151Z" fill="#025155"></path>
<path d="M794.592 567.061V474.879C792.571 476.285 790.55 477.779 788.441 479.273V467.938C767.613 481.998 747.138 497.288 727.102 513.72C729.562 515.741 732.111 517.587 734.659 519.608C734.044 520.047 733.517 520.487 732.902 521.014C753.026 537.622 773.677 552.912 794.592 567.148V567.061Z" fill="#025155"></path>
<path d="M440.269 883.056C424.715 870.49 409.512 857.045 394.485 843.161C382.709 832.264 371.109 821.016 359.685 809.417C344.394 793.775 329.543 777.518 315.043 760.558C303.971 747.641 293.074 734.283 282.44 720.663C267.677 701.682 253.353 681.998 239.556 661.611C229.538 646.848 219.871 631.733 210.468 616.355C196.671 593.859 183.577 570.66 171.099 546.67C166.705 538.234 162.399 529.623 158.181 521.011C162.399 512.399 166.705 503.787 171.099 495.351C183.577 471.449 196.671 448.25 210.468 425.754C219.871 410.288 229.538 395.174 239.556 380.499C253.353 360.112 267.677 340.428 282.44 321.447C293.074 307.738 303.971 294.469 315.043 281.551C329.543 264.591 344.482 248.247 359.685 232.693C371.109 221.005 382.709 209.758 394.485 198.949C409.512 185.065 424.715 171.62 440.269 159.054C452.133 149.475 464.084 140.336 476.212 131.461C576.217 58.7004 685.186 12.9176 794.594 0H0V1042.29H794.594C685.186 1029.37 576.217 983.585 476.212 910.824C464.084 902.037 452.133 892.81 440.269 883.232V883.056Z" fill="#025155"></path>
<path d="M227.691 566.444C233.667 551.153 240.346 535.951 247.552 520.924C246.41 518.552 245.531 516.179 244.476 513.806C244.476 513.806 244.476 513.718 244.476 513.631C237.358 498.604 230.679 483.577 224.704 468.375C216.267 483.138 208.27 498.34 200.449 513.631C201.504 515.74 202.734 517.761 203.789 519.87C203.613 520.221 203.437 520.573 203.261 520.924C211.17 536.39 219.255 551.593 227.691 566.444Z" fill="#025155"></path>
<path d="M370.581 762.846C377.26 739.207 385.432 715.745 395.011 692.546C393.341 690.7 391.76 688.767 390.178 686.922C390.529 686.043 390.793 685.164 391.145 684.373C375.942 667.238 361.266 649.399 346.942 630.945C337.099 654.847 329.015 678.925 322.512 703.179C323.918 704.936 325.5 706.694 326.906 708.451C326.642 709.506 326.202 710.56 325.939 711.527C340.351 729.453 355.29 746.501 370.581 762.933V762.846Z" fill="#025155"></path>
<path d="M474.191 622.77C462.239 643.157 451.518 663.807 442.027 684.721C457.406 701.242 473.224 716.884 489.394 731.91C498.972 711.435 509.693 691.136 521.381 671.101C505.3 655.811 489.569 639.553 474.191 622.857V622.77Z" fill="#025155"></path>
<path d="M794.594 351.852C739.582 381.026 686.328 418.637 636.15 463.717C626.308 472.504 616.641 481.643 607.15 491.046C597.308 500.624 587.729 510.73 578.238 520.923C587.729 531.117 597.396 541.134 607.15 550.801C616.729 560.203 626.395 569.342 636.15 578.13C686.328 623.297 739.582 660.82 794.594 689.995V614.686C755.401 589.993 717.349 561.346 680.968 528.92C678.068 526.371 675.256 523.56 672.356 520.923C675.256 518.287 678.068 515.475 680.968 512.927C717.437 480.501 755.488 451.853 794.594 427.161V351.852Z" fill="#025155"></path>
<path d="M581.839 581.91C565.933 566.444 550.467 550.274 535.264 533.402C521.291 551.153 508.197 569.168 496.07 587.533C511.273 604.581 526.828 620.926 542.734 636.392C554.861 617.938 567.954 599.748 581.839 581.91Z" fill="#025155"></path>
<path d="M369.263 280.497C368.56 278.036 367.593 275.576 366.89 273.027C351.775 289.46 336.836 306.42 322.512 324.171C329.015 348.424 337.099 372.502 346.942 396.404C347.205 396.052 347.469 395.789 347.733 395.437C348.699 397.986 349.49 400.534 350.545 402.995C364.957 384.453 379.72 366.439 395.011 349.215C385.432 325.928 377.26 302.466 370.581 278.827C370.142 279.354 369.702 279.882 369.175 280.321L369.263 280.497Z" fill="#025155"></path>
<path d="M448.179 204.311C447.476 201.851 446.685 199.478 445.982 197.105C430.076 210.55 414.521 224.698 399.23 239.637C404.855 263.539 412.237 287.265 421.112 310.816C421.552 310.289 422.079 309.937 422.606 309.41C423.485 311.87 424.276 314.418 425.155 316.967C440.709 300.974 456.527 285.771 472.697 271.184C463.821 248.512 456.263 225.665 450.112 202.642C449.409 203.257 448.794 203.784 448.091 204.399L448.179 204.311Z" fill="#025155"></path>
<path d="M343.252 560.818C350.37 547.374 358.103 534.105 366.188 520.923C364.782 518.639 363.639 516.354 362.233 514.069C362.233 513.893 362.409 513.805 362.497 513.63C354.412 500.536 346.767 487.267 339.649 473.91C330.861 486.828 322.337 500.097 313.988 513.63C315.306 515.739 316.712 517.76 318.031 519.957C317.855 520.308 317.591 520.572 317.415 520.923C325.852 534.456 334.376 547.901 343.164 560.818H343.252Z" fill="#025155"></path>
<path d="M295.271 370.659C294.48 368.198 293.426 365.738 292.635 363.277C278.223 382.961 264.338 403.26 250.98 424.35C258.802 447.813 268.117 471.188 279.014 494.299C280.156 496.672 281.035 499.132 282.177 501.593C295.271 480.415 308.892 459.852 323.041 439.992C312.495 416.793 303.444 393.418 295.886 369.868C295.623 370.219 295.447 370.571 295.183 370.834L295.271 370.659Z" fill="#025155"></path>
<path d="M295.972 672.157C303.617 648.607 312.669 625.232 323.126 602.033C321.72 600.012 320.402 597.903 318.996 595.882C319.26 595.354 319.435 594.827 319.611 594.3C305.551 574.528 291.929 554.141 278.924 533.051C268.027 556.162 258.712 579.449 250.891 602.999C252.121 604.933 253.439 606.866 254.669 608.799C254.406 609.502 254.142 610.117 253.966 610.82C267.324 631.998 281.384 652.473 295.884 672.245L295.972 672.157Z" fill="#025155"></path>
<path d="M1026.06 745.86C1017.28 737.337 1012.79 726.967 1012.79 714.929V329.069C1013.23 317.03 1017.8 306.837 1026.33 298.489C1034.85 290.141 1045.22 285.923 1057.26 285.923H1066.31V278.98H914.02V285.923H923.071C935.11 285.923 945.392 290.053 954.004 298.489C962.616 306.837 967.098 317.03 967.537 329.069V714.929C967.098 726.967 962.528 737.337 954.004 745.86C945.392 754.472 935.11 758.69 923.071 758.69H914.02V765.632H1066.31V758.69H1057.26C1045.22 758.69 1034.76 754.384 1025.98 745.86H1026.06Z" fill="#025155"></path>
<path d="M1539.27 870.028C1499.37 870.028 1460.36 859.483 1422.13 838.393C1383.9 817.303 1349.45 790.325 1318.87 757.372L1082.48 504.995L1244.53 317.909C1263.95 296.116 1288.99 285.22 1319.66 285.22H1322.47V278.98H1175.72V285.22H1182.66C1192.42 285.22 1199.09 288.647 1202.78 295.677C1204.19 298.489 1204.89 301.652 1204.89 305.431C1204.89 309.21 1203.05 313.34 1199.36 317.909L1035.29 523.712L1265.44 769.147C1336.8 845.159 1410.53 883.209 1486.54 883.209C1504.12 883.209 1521.78 881.1 1539.36 876.97V870.028H1539.27Z" fill="#025155"></path>
<path d="M1797.9 339.177C1748.25 292.603 1683.92 269.316 1604.92 269.316C1525.91 269.316 1461.59 292.603 1411.94 339.177C1362.29 385.751 1337.5 446.824 1337.5 522.396C1337.5 597.969 1362.29 659.042 1411.94 705.616C1461.5 752.19 1525.83 775.476 1604.92 775.476C1684.01 775.476 1748.25 752.19 1797.9 705.616C1847.46 659.042 1872.24 597.969 1872.24 522.396C1872.24 446.824 1847.46 385.751 1797.9 339.177ZM1759.32 690.589C1720.13 733.209 1668.63 754.562 1604.57 754.562C1540.5 754.562 1489.01 733.209 1449.9 690.589C1410.71 647.97 1391.11 591.818 1391.11 522.308C1391.11 452.799 1410.71 396.735 1449.9 354.028C1489.09 311.408 1540.68 290.055 1604.57 290.055C1668.45 290.055 1720.13 311.408 1759.32 354.028C1798.51 396.735 1818.11 452.799 1818.11 522.308C1818.11 591.818 1798.51 647.97 1759.32 690.589Z" fill="#025155"></path>
<path d="M2531.15 296.731C2542.93 289.613 2554.88 285.923 2567.01 285.923H2572.54V278.98H2435.54V285.923H2441.78C2451.54 285.923 2458.74 288.91 2463.4 294.974C2467.97 301.037 2470.34 306.661 2470.34 312.021C2470.34 317.382 2469.64 322.566 2468.23 327.663L2375.08 653.064L2238.08 268.523L2231.84 267.82L2102.48 666.949L1996.77 328.366C1995.36 323.709 1994.66 318.612 1994.66 313.076C1994.66 307.54 1997.12 301.564 2001.95 295.325C2006.78 289.086 2014.08 285.923 2023.83 285.923H2030.07V278.98H1875.76V285.923H1881.29C1893.33 285.923 1905.2 289.526 1916.8 296.731C1928.4 303.937 1936.92 314.482 1942.55 328.366L2100.37 774.068H2106.61C2107.58 751.397 2112.41 725.649 2121.2 696.914L2226.92 376.346L2368.75 774.068H2374.99C2375.96 751.836 2381.06 726.089 2390.28 696.914L2505.76 329.069C2510.85 314.658 2519.29 303.937 2531.15 296.731Z" fill="#025155"></path>
<path d="M2758.85 285.923V278.98H2606.55V285.923H2615.6C2627.64 285.923 2637.92 290.228 2646.54 298.752C2655.06 307.364 2659.63 317.646 2660.07 329.685V744.806C2660.07 774.508 2652.16 802.452 2636.43 828.551C2620.7 854.738 2601.46 871.785 2578.7 879.694V885.933C2614.37 885.933 2644.43 872.488 2668.77 845.599C2693.11 818.709 2705.24 785.756 2705.24 746.827V329.685C2705.68 321.336 2707.79 313.955 2711.48 307.452C2720.27 293.129 2733.01 285.923 2749.71 285.923H2758.76H2758.85Z" fill="#025155"></path>
<path d="M3172.57 285.923H3183.73C3193.93 285.923 3202.45 289.086 3209.48 295.325C3216.42 301.564 3220.12 309.561 3220.64 319.315V593.925C3220.64 641.729 3206.49 680.306 3178.2 709.744C3149.9 739.182 3113.08 753.857 3067.65 753.857C3022.21 753.857 2985.92 738.303 2958.85 707.283C2931.79 676.264 2918.17 635.402 2918.17 584.874V319.315C2918.61 309.561 2922.3 301.564 2929.33 295.325C2936.27 289.086 2944.88 285.923 2955.08 285.923H2966.15V278.98H2825.02V285.923H2836.09C2843.03 285.923 2849.27 287.329 2854.89 290.141C2866.93 296.644 2873 306.837 2873 320.721V594.716C2873 648.934 2890.75 692.608 2926.16 725.737C2961.67 758.866 3007.89 775.474 3064.92 775.474C3121.96 775.474 3167.56 758.778 3201.93 725.386C3236.2 691.993 3253.33 648.232 3253.33 593.925V318.612C3253.77 309.385 3257.64 301.564 3264.85 295.325C3272.05 289.086 3280.49 285.923 3290.24 285.923H3301.4V278.98H3172.75V285.923H3172.57Z" fill="#025155"></path>
<path d="M437.898 350.798C447.389 371.537 458.022 392.1 469.886 412.399C469.974 412.223 470.15 412.135 470.238 411.959C471.556 414.332 472.786 416.704 474.192 419.077C489.571 402.293 505.301 386.124 521.383 370.834C509.695 350.798 498.974 330.499 489.395 310.024C489.043 310.288 488.78 310.639 488.428 310.903C487.286 308.53 486.056 306.246 485.001 303.961C468.919 318.9 453.189 334.454 437.898 350.886V350.798Z" fill="#025155"></path>
<path d="M382.619 469.692C389.122 481.555 395.888 493.418 403.182 505.105C417.155 486.212 431.655 468.022 446.506 450.447C434.291 430.324 423.218 409.937 413.2 389.374C413.112 389.55 412.937 389.638 412.849 389.813C411.706 387.529 410.388 385.156 409.246 382.871C394.306 400.358 379.631 418.461 365.57 437.442C370.931 448.25 376.643 459.059 382.619 469.692Z" fill="#025155"></path>
<path d="M469.181 556.164C477.266 544.301 485.79 532.614 494.578 520.926C492.908 518.729 491.414 516.444 489.745 514.248C489.92 514.072 490.008 513.896 490.184 513.632C481.484 502.033 472.96 490.433 464.875 478.57C455.56 489.906 446.421 501.681 437.457 513.632C439.039 515.741 440.796 517.762 442.378 519.871C442.115 520.223 441.851 520.575 441.587 520.838C450.639 532.789 459.778 544.652 469.181 556.076V556.164Z" fill="#025155"></path>
<path d="M606.092 425.931C607.762 428.215 609.432 430.5 611.101 432.785C668.837 381.114 730.616 338.846 794.591 307.211V238.845C792.57 239.636 790.548 240.602 788.439 241.393V233.133C711.458 263.362 636.586 310.287 567.602 371.536C579.465 389.99 592.208 408.18 605.917 426.018L606.092 425.931Z" fill="#025155"></path>
<path d="M479.9 169.599C485.173 192.447 492.115 215.207 500.376 237.79C501.079 237.263 501.782 236.736 502.397 236.208C503.276 238.669 503.979 241.042 504.858 243.502C595.021 169.687 693.884 118.104 794.504 93.6752V40.3353C792.483 40.5989 790.374 41.0382 788.352 41.3018V35.7656C682.284 49.1226 576.478 95.7844 479.812 169.687L479.9 169.599Z" fill="#025155"></path>
</svg>